# xmcd CD database file
#
# Track frame offsets:
#	150
#	14410
#	27787
#	39627
#	51842
#	65192
#	79077
#	92122
#	104730
#	116300
#	128477
#	141062
#	153670
#	166062
#
# Disc length: 2384 seconds
#
# Revision: 1
# Processed by: cddbd v1.5.2PL0 Copyright (c) Steve Scherf et al.
# Submitted via: CDex 1.70beta2
#
DISCID=b7094e0e
DTITLE=The Andrew Sisters - Rum and Coca-Cola
DYEAR=1900
DGENRE=Jazz
TTITLE0=Rum and Coca Cola
TTITLE1=Don't sit under the apple tree
TTITLE2=Rhumboogie
TTITLE3=Ti-pi-tin
TTITLE4=Carmen's boogie
TTITLE5=Pennsylvania
TTITLE6=The beer barrel polka
TTITLE7=Wake up and live
TTITLE8=Say "si si"
TTITLE9=Just a simple melody
TTITLE10=Oh, Johnny! Oh, Johnny!
TTITLE11=Says my heart
TTITLE12=Lullaby of Broadway
TTITLE13=Shortnin'bread
EXTD=
EXTT0=
EXTT1=
EXTT2=
EXTT3=
EXTT4=
EXTT5=
EXTT6=
EXTT7=
EXTT8=
EXTT9=
EXTT10=
EXTT11=
EXTT12=
EXTT13=
PLAYORDER=
